<svg xmlns="http://www.w3.org/2000/svg" xmlns:xlink="http://www.w3.org/1999/xlink" version="1.0" x="0px" y="0px" viewBox="0 0 100 100" enable-background="new 0 0 100 100" xml:space="preserve"><g><g><circle cx="44.1276855" cy="47.156311" r="1.7494832"></circle><path d="M58.8842773,61.7900391c-8.3208008,2.7607422-13.762207-0.2431641-13.815918-0.2744141    c-0.4780273-0.2695312-1.0869141-0.109375-1.362793,0.3681641c-0.2763672,0.4785156-0.112793,1.0898438,0.3657227,1.3662109    c0.171875,0.0986328,3.0600586,1.7216797,7.8540039,1.7216797c2.1655273,0,4.7202148-0.3310547,7.5888672-1.2832031    c0.5244141-0.1738281,0.8081055-0.7402344,0.6342773-1.2646484    C59.9750977,61.9013672,59.4111328,61.6181641,58.8842773,61.7900391z"></path><circle cx="62.104248" cy="47.3255615" r="1.7494224"></circle><path d="M89.4897461,72.0751953l-4.6411133-2.2607422    c-6.78125-3.3037109-7.0883789-10.1933594-7.4140625-17.4873047c-0.1328125-2.9716797-0.2695312-6.0439453-0.9023438-8.7802734    c-2.1538086-9.3193359-5.3632812-16.1220703-10.0996094-21.4082031    c-5.4342651-6.0662842-10.0298462-6.6623535-12.0996094-6.546875c2.0620728,3.3549805,2.1261597,8.2453613,2.0372925,10.4018555    c0.7295532,0.5476074,1.5396729,1.173584,1.9260864,1.472168c0.2283936,0.1767578,0.4083252,0.3154297,0.5280151,0.40625    c0.05896,0.0449219,0.1078491,0.0820312,0.1321411,0.0996094c0.0028687,0.0020752,0.0056152,0.0041504,0.0084839,0.0061035    c3.3768311,2.4318848,5.2419434,5.6166992,6.2346802,10.6433105l0.2998047,1.5195312    c0.121521,0.6138916,0.2438354,1.2354736,0.3655396,1.8603516c-5.0845337,0.0170898-9.8048096,1.9064941-10.8884888,2.3720703    l-2.5273438-0.0849609c-0.7558594-0.4726562-3.0576172-1.7392578-6.8764648-2.3466797    c-4.3330078-0.6914062-9.9316406,0.90625-10.8671875,1.1884766L34.24646,43.1514893    c1.0221558-5.1446533,4.8631592-8.81604,7.9205322-10.9942627c1.9956055-1.4208984,4.3320312-2.4433594,6.5913086-3.4326172    c1.6898193-0.7397461,3.4194336-1.4967041,5.0531616-2.434082c0.1896362-0.1088867,0.3691406-0.2353516,0.5559082-0.3493652    c0.0982056-2.4595947,0.0132446-9.0760498-3.5436401-11.1452637c-0.0223999-0.0129395-0.034729-0.0350342-0.0557251-0.0494385    c-4.4725342-1.1517334-8.8319092-0.5684814-12.9974976,1.7574463c-9.347168,5.21875-15.7797852,18.4589844-17.3022461,28.8408203    c-0.4399414,2.9990234-0.4111328,6.0429688-0.3833008,8.9863281c0.0253906,2.6972656,0.0517578,5.4863281-0.2915039,8.1728516    c-0.6464844,5.0742188-8.6640625,4.9384766-8.7446289,4.9189453c-0.2949219,0.0039062-0.5693359,0.1103516-0.7641602,0.3242188    c-0.1958008,0.2138672-0.2895508,0.5019531-0.2568359,0.7900391c0.6142578,5.3583984,3.8325195,9.3916016,9.0615234,11.3574219    c7.1906128,2.7041016,17.2561035,1.1105957,22.9126587-3.5134277c2.7132568,1.7834473,5.5782471,2.6794434,8.734314,2.6794434    c2.0841064,0,4.3007202-0.4005127,6.6761475-1.1674805c1.5809326,0.9285889,7.5617065,4.0834961,15.8336182,4.0834961    c0.6606445,0,1.3369141-0.0205078,2.0258789-0.0634766c10.8227539-0.6777344,14.5297852-8.1884766,14.6821289-8.5078125    C90.190918,72.9101562,89.9833984,72.3164062,89.4897461,72.0751953z M66.244751,44.0058594    c1.034668,0.0158691,2.0739136,0.1171875,3.0823975,0.3476562c0.0571289,3.2666016-0.3896484,6.3818359-0.9741211,6.7441406    c-0.2723999,0.0600586-0.6381226,0.1157227-1.0543213,0.1679688c-2.2297363,0.2797852-6.097168,0.446167-7.1312256,0.4873047    c-0.3408203-0.2626953-1.5249023-1.4130859-3.640625-5.8457031C58.2789917,45.2392578,62.2246094,43.9438477,66.244751,44.0058594    z M45.2583008,43.9160156c2.7919922,0.4445801,4.649353,1.2645264,5.5818481,1.7595215    c-1.2391357,2.4973145-3.0932007,4.8613281-3.7498169,5.6623535c-4.2041016,0.5029297-8.8510742-0.5712891-9.8100586-1.0351562    c-0.2576294-0.7164307-0.8044434-3.246582-1.2231445-5.4726562C37.8497925,44.3563232,42.0445557,43.40625,45.2583008,43.9160156z     M65.5737305,65.5146484c-0.2346191,0.5333252-0.4923096,1.0637207-0.7694702,1.5876465    c-0.0906372,0.1713867-0.1954346,0.3369141-0.2902222,0.5067139c-0.1951294,0.3494873-0.3869629,0.7006836-0.5982666,1.0421143    c-0.1216431,0.1967773-0.2564697,0.3837891-0.3830566,0.5772705c-0.2000122,0.305542-0.3954468,0.6147461-0.6066284,0.9110107    c-0.1444092,0.2025146-0.2999878,0.3922119-0.4490967,0.5898438c-0.2068481,0.2739258-0.4094238,0.5531006-0.6242676,0.8161621    c-0.1602173,0.196167-0.3290405,0.3764648-0.4931641,0.5657959c-0.2147827,0.2479248-0.4263306,0.5023193-0.6469116,0.7376709    c-0.1712646,0.1826172-0.3485107,0.3460693-0.522644,0.5203857c-0.2214355,0.2215576-0.4406128,0.4508057-0.6658325,0.6578369    c-0.1797485,0.1651611-0.3630371,0.3084717-0.5446167,0.463623c-0.2247925,0.1921387-0.4483643,0.3930664-0.6750488,0.5686035    c-0.1847534,0.1431885-0.3705444,0.2617188-0.5559692,0.3930664c-0.2156982,0.1530762-0.4311523,0.3144531-0.6470337,0.4506836    c-5.8266602,1.9558105-10.3289795,1.4677734-14.5805054-1.5778809c-1.8461914-1.3232422-3.9204102-2.8876953-5.3071289-4.4677734    c-2.9716797-3.3837891-4.5019531-8.0810547-4.5493164-13.9619141c-0.0285034-3.5969238,0.5473022-7.2020264,1.1985474-10.7235107    l0.2209473-0.010376c0.6940918,3.7086182,1.2251587,5.855957,1.5770874,6.3647461    c0.6918945,0.9970703,5.0673828,1.9335938,9.1386719,1.9335938c1.0234375,0,2.0283203-0.0595703,2.9501953-0.1914062    c0.2387695-0.0341797,0.4570312-0.1542969,0.6147461-0.3369141c0.1148682-0.1330566,2.5892334-3.0192871,4.2191772-6.2636719    l1.2481079,8.7480469l-3.7719727,0.8144531c-0.5400391,0.1162109-0.8833008,0.6484375-0.7666016,1.1884766    c0.1010742,0.46875,0.515625,0.7890625,0.9765625,0.7890625c0.0698242,0,0.1411133-0.0068359,0.2119141-0.0224609    l4.6826172-1.0107422c0.5131836-0.1103516,0.8530273-0.5996094,0.7788086-1.1191406l-1.3704834-9.6047363    c2.1745605,4.618042,3.9842529,7.1429443,5.2449951,7.3029785c0.0415039,0.0048828,0.0834961,0.0078125,0.1254883,0.0078125    c0.0117188,0,0.0234375,0,0.0351562-0.0009766c0.2272339-0.0073242,4.7409668-0.1706543,7.460083-0.4996338    C67.651123,57.5178223,67.2478638,61.7089844,65.5737305,65.5146484z"></path></g></g></svg>