<?xml version="1.0" encoding="utf-8"?>
<!-- Generator: Adobe Illustrator 16.0.0, SVG Export Plug-In . SVG Version: 6.00 Build 0)  -->
<!DOCTYPE svg PUBLIC "-//W3C//DTD SVG 1.1//EN" "http://www.w3.org/Graphics/SVG/1.1/DTD/svg11.dtd">
<svg version="1.1" id="Layer_1" xmlns:sketch="http://www.bohemiancoding.com/sketch/ns"
	 xmlns="http://www.w3.org/2000/svg" xmlns:xlink="http://www.w3.org/1999/xlink" x="0px" y="0px" width="200px" height="200px"
	 viewBox="0 0 200 200" enable-background="new 0 0 200 200" xml:space="preserve">
<title>science-fox</title>
<desc>Created with Sketch.</desc>
<g id="Page-1_1_" sketch:type="MSPage">
	<g id="science-fox" sketch:type="MSArtboardGroup">
		<g id="Page-1" sketch:type="MSLayerGroup">
			<path id="Fill-1" sketch:type="MSShapeGroup" fill="#934E9D" d="M0,0.689V127.6l52.439,45.711L173.576,56.372L126.141,0.689H0z"
				/>
			<g id="Group-6" transform="translate(25.908046, 28.142857)" sketch:type="MSShapeGroup">
				<path id="Fill-2" fill="#934E9D" d="M0.85,84.645c0,46.509,37.729,84.212,84.268,84.212c46.529,0,84.258-37.704,84.258-84.212
					c0-46.508-37.729-84.21-84.258-84.21H0.85V84.645z"/>
				<path id="Fill-4" fill="#FFFFFF" d="M8.099,84.645c0,42.508,34.484,76.968,77.019,76.968c42.525,0,77.01-34.46,77.01-76.968
					c0-42.507-34.484-76.966-77.01-76.966H8.099V84.645z"/>
			</g>
			<g id="Group-296" transform="translate(65.333333, 54.034286)" sketch:type="MSShapeGroup">
				<path id="Fill-7" fill="#FFFFFF" d="M59.299,1.711c2.229,0.999,3.881,2.227,3.694,5.465c-0.185,3.24-0.079,8.281-4.278,9.203
					c-1.271,0.279-6.23,0.624-7.994-0.736c-1.881-1.45-4.639-4.297-6.004-4.375c-1.364-0.078-2.594,2.952-3.248,4.529
					c-1.004,2.423-5.338,3.298-7.03,3.531c-2.366,0.324-4.792-0.129-6.988-3.671c-1.783-2.873-1.515-6.93,0.001-9.176
					c1.748-2.588,7.645-4.733,17.169-5.746C52.837-0.138,56.902,0.637,59.299,1.711"/>
				<path id="Fill-9" fill="#9EBEBC" d="M24.605,93.1c0,0,13.808,1.418,21.774,0.164c8.565-1.351,18.598-4.43,18.598-4.43V78.001
					H24.605V93.1z"/>
				<path id="Fill-11" fill="#D9D9D8" d="M44.932,103.391c-14.114,0-25.557,2.946-25.557,6.58c0,3.635,11.442,6.58,25.557,6.58
					c14.117,0,25.559-2.945,25.559-6.58C70.491,106.338,59.048,103.391,44.932,103.391"/>
				<path id="Fill-13" fill="#F26E26" d="M48.714,81.8v26.131c0,0,7.179,3.107,9.321,3.611c4.269,1.004,5.921-2.74,3.738-3.177
					s-8.694-2.777-8.694-2.777V82.913L48.714,81.8z"/>
				<path id="Fill-15" fill="#F26E26" d="M40.803,83.785v24.144c0,0-7.778,3.338-9.939,3.764c-3.817,0.753-5.304-2.891-3.121-3.326
					c2.183-0.436,8.694-2.778,8.694-2.778V82.913L40.803,83.785z"/>
				<path id="Fill-17" fill="#F26E26" d="M81.464,63.136c-2.177,9.286-7.695,18.704-21.295,17.106c0,0,0.082-17.761,0.082-17.783
					c0.002-0.881,2.401-2.419,2.986-2.812c1.215-0.817,2.561-1.435,3.964-1.853c1.784-0.53,3.673-0.448,5.5-0.782"/>
				<path id="Fill-19" fill="#D75C27" d="M78.9,62.246c-3.149,6.254-8.765,10.981-18.694,9.829c-0.02,4.191-0.037,8.169-0.037,8.169
					c13.602,1.597,19.119-7.821,21.295-17.108"/>
				<path id="Fill-21" fill="#ECDDC9" d="M82.671,46.503c-0.027,3.838-2.168,6.967-5.451,8.823c-1.11,0.628-2.303,1.106-3.528,1.459
					c-0.382,0.11-0.769,0.187-1.158,0.252c0.642,1.44,2.718,4.601,8.917,6.149C83.424,54.8,82.671,46.503,82.671,46.503"/>
				<path id="Fill-23" fill="#E0D3C1" d="M82.812,50.204c0,0.098,0.001,0.195,0.001,0.295
					C82.813,50.397,82.812,50.302,82.812,50.204"/>
				<path id="Fill-25" fill="#E0D3C1" d="M82.807,49.727c0,0.074,0.002,0.149,0.002,0.225C82.81,49.877,82.809,49.802,82.807,49.727
					"/>
				<path id="Fill-27" fill="#E0D3C1" d="M82.812,50.704c0,0.12-0.001,0.241-0.002,0.365C82.811,50.944,82.812,50.824,82.812,50.704
					"/>
				<path id="Fill-29" fill="#E0D3C1" d="M82.792,48.863c0,0.026,0,0.052,0.002,0.077C82.792,48.914,82.792,48.888,82.792,48.863"/>
				<path id="Fill-31" fill="#E0D3C1" d="M0,0"/>
				<path id="Fill-33" fill="#E0D3C1" d="M82.799,49.28c0.002,0.051,0.002,0.101,0.004,0.152
					C82.803,49.381,82.801,49.331,82.799,49.28"/>
				<path id="Fill-35" fill="#E0D3C1" d="M82.807,51.231c0,0.142-0.002,0.285-0.006,0.43C82.805,51.516,82.807,51.373,82.807,51.231
					"/>
				<path id="Fill-37" fill="#E0D3C1" d="M82.799,51.78c-0.002,0.164-0.006,0.331-0.01,0.501
					C82.794,52.111,82.796,51.944,82.799,51.78"/>
				<path id="Fill-39" fill="#E0D3C1" d="M82.786,52.339c-0.006,0.19-0.011,0.383-0.019,0.579
					C82.775,52.722,82.78,52.529,82.786,52.339"/>
				<path id="Fill-41" fill="#E0D3C1" d="M82.66,46.761c-0.021,0.312-0.047,0.629-0.073,0.951c-0.002,0.014-0.004,0.028-0.006,0.043
					c0.045-0.339,0.072-0.684,0.081-1.037C82.662,46.733,82.661,46.746,82.66,46.761"/>
				<path id="Fill-43" fill="#E0D3C1" d="M82.671,46.511v-0.008c0,0.088-0.009,0.172-0.011,0.258
					c0.001-0.015,0.001-0.027,0.002-0.041C82.665,46.649,82.671,46.581,82.671,46.511"/>
				<path id="Fill-45" fill="#E0D3C1" d="M82.794,48.94c0.002,0.109,0.006,0.224,0.008,0.34
					C82.798,49.164,82.796,49.05,82.794,48.94"/>
				<path id="Fill-47" fill="#E0D3C1" d="M82.803,49.434c0,0.096,0.002,0.193,0.004,0.293
					C82.807,49.627,82.803,49.529,82.803,49.434"/>
				<path id="Fill-49" fill="#E0D3C1" d="M82.788,52.281c0,0.019-0.001,0.039-0.002,0.059C82.787,52.32,82.788,52.3,82.788,52.281"
					/>
				<path id="Fill-51" fill="#E0D3C1" d="M82.767,52.92v-0.003V52.92"/>
				<path id="Fill-53" fill="#E0D3C1" d="M82.779,48.475c0.005,0.125,0.008,0.254,0.011,0.387
					C82.787,48.727,82.784,48.6,82.779,48.475"/>
				<path id="Fill-55" fill="#E0D3C1" d="M82.81,49.953c0.001,0.082,0.001,0.167,0.001,0.251
					C82.811,50.119,82.811,50.035,82.81,49.953"/>
				<path id="Fill-57" fill="#E0D3C1" d="M82.801,51.661c0,0.039,0,0.079-0.002,0.118C82.801,51.74,82.801,51.701,82.801,51.661"/>
				<path id="Fill-59" fill="#E0D3C1" d="M82.81,51.068c0,0.054-0.001,0.108-0.003,0.163C82.809,51.179,82.81,51.122,82.81,51.068"
					/>
				<path id="Fill-61" fill="#E0D3C1" d="M82.779,48.475c-0.042-1.241-0.108-1.972-0.108-1.972v0.007
					c0,0.006,0.002,0.012,0.002,0.032C82.687,46.7,82.742,47.391,82.779,48.475"/>
				<path id="Fill-63" fill="#E0D3C1" d="M82.812,50.499v0.205V50.499"/>
				<path id="Fill-65" fill="#E0D3C1" d="M82.786,52.339c0.001-0.019,0.001-0.039,0.002-0.059c0.006-0.17,0.008-0.335,0.012-0.5
					c0-0.039,0-0.08,0.002-0.119c0.002-0.145,0.004-0.288,0.006-0.43c0-0.055,0.002-0.109,0.002-0.163
					c0.001-0.124,0.002-0.244,0.002-0.365v-0.204v-0.296c-0.001-0.084-0.001-0.169-0.002-0.251c0-0.077-0.002-0.15-0.002-0.225
					c-0.002-0.1-0.002-0.198-0.006-0.295c0-0.052-0.002-0.102-0.002-0.152c-0.002-0.116-0.006-0.23-0.008-0.34
					c0-0.026,0-0.053-0.002-0.078c-0.003-0.133-0.008-0.264-0.011-0.387l0,0c-0.037-1.084-0.092-1.775-0.106-1.935
					c-0.002,0.06-0.008,0.118-0.011,0.177c-0.01,0.353-0.036,0.698-0.081,1.037c-0.393,4.543-1.39,9.992-3.736,14.596
					c0.779,0.309,1.637,0.594,2.605,0.836c0.864-3.668,1.205-7.319,1.317-10.266v-0.003C82.775,52.722,82.78,52.529,82.786,52.339"
					/>
				<path id="Fill-67" fill="#E0D3C1" d="M82.674,46.542c-0.002-0.02-0.002-0.025-0.002-0.029c-0.002,0.069-0.008,0.137-0.01,0.207
					C82.667,46.66,82.671,46.6,82.674,46.542"/>
				<path id="Fill-69" fill="#F26E26" d="M24.606,0.555v44.988h40.373V0.555l-5.365,4.667H30.38L24.606,0.555z"/>
				<path id="Fill-71" fill="#ECDDC9" d="M64.979,13.09v18.059l-15.278,4.975C50.529,14.838,62.516,13.2,64.979,13.09"/>
				<path id="Fill-73" fill="#ECDDC9" d="M0,0"/>
				<path id="Fill-75" fill="#ECDDC9" d="M34.849,17.307c12.115,8.491,10.52,18.835,10.52,18.835l-20.762-4.85V13.09
					C24.606,13.09,30.414,14.198,34.849,17.307"/>
				<path id="Fill-77" fill="#272724" d="M35.443,24.677c0.62,0.614,0.624,1.612,0.01,2.231c-0.613,0.618-1.612,0.623-2.231,0.01
					c-0.62-0.614-0.624-1.612-0.01-2.231C33.824,24.068,34.824,24.064,35.443,24.677"/>
				<path id="Fill-79" fill="#272724" d="M59.952,24.565c0.62,0.612,0.624,1.612,0.01,2.231c-0.613,0.618-1.613,0.623-2.23,0.01
					c-0.62-0.614-0.624-1.612-0.01-2.231C58.333,23.956,59.333,23.952,59.952,24.565"/>
				<path id="Fill-81" fill="#272724" d="M45.369,36.142c0,0,0.056-1.694-0.629-4.3l5.306-0.019
					c-0.166,1.337-0.285,2.766-0.346,4.299"/>
				<path id="Fill-83" fill="#333330" d="M44.74,31.842l5.308-0.019c-0.056,0.435-0.102,0.883-0.146,1.336l-4.854,0.017
					C44.965,32.765,44.865,32.319,44.74,31.842"/>
				<path id="Fill-85" fill="#E0D3C1" d="M64.979,13.099v2.274c-3.817,0.509-13.62,3.499-15.102,20.712l-0.144,0.047
					C50.561,14.848,62.516,13.21,64.979,13.099"/>
				<path id="Fill-87" fill="#E0D3C1" d="M24.623,13.099l-0.017,2.274c5.28,0.509,18.791,3.499,20.842,20.712l0.197,0.047
					C44.501,14.847,28.028,13.21,24.623,13.099"/>
				<path id="Fill-89" fill="#BAD6D5" d="M24.606,32.914v59.571c4.026,0,19.589-4.629,23.506-9.572
					c3.917,4.003,13.818,6.159,16.866,5.922V33.149l-16.866,9.807L24.606,32.914z"/>
				<path id="Fill-91" fill="#F26E26" d="M78.41,29.285c0.339,0.835,0.474,1.696,0.267,2.538c-0.428,1.729-3.332,3.468-3.332,3.468
					s0.533,2.753,1.947,4.402c2.942-1.824,5.243-3.458,5.862-6.348c0.269-1.25,0.231-2.649-0.122-4.183
					C81.508,29.229,79.952,29.221,78.41,29.285"/>
				<path id="Fill-93" fill="#BAD6D5" d="M64.979,38.064c0,0,5.301,0.706,10.367-3.885c1.297,1.766,2.652,4.063,2.945,6.122
					c-4.359,2.59-7.396,3.504-13.312,3.768L64.979,38.064L64.979,38.064z"/>
				<path id="Fill-95" fill="#9BBBB9" d="M48.111,42.957c0,0,2.176,3.565,3.218,8.112C59.548,42.99,62.822,37.33,64.978,33.15
					C60.703,35.635,48.111,42.957,48.111,42.957"/>
				<path id="Fill-97" fill="#CBE4E2" d="M48.111,42.957c0,0,2.735,1.53,3.776,6.077c5.705-5.98,10.822-11.577,13.091-15.884
					C60.703,35.635,48.111,42.957,48.111,42.957"/>
				<path id="Fill-99" fill="#575757" d="M62.995,7.181c0.734,0.042,1.236,0.087,1.977,0.531c0.127,0.071,0.349,0.251,0.349,0.563
					c0,1.141,0.035,2.497,0.038,3.248c0.001,0.312-0.376,0.531-0.376,0.531s-1.804-0.586-2.349-0.586
					C62.934,9.353,62.979,7.641,62.995,7.181"/>
				<path id="Fill-101" fill="#8BD3DF" d="M30.379,5.222l-0.776-0.628c-0.982,0.593-1.705,1.226-2.153,1.888
					c-1.516,2.246-1.784,6.303-0.001,9.176c2.197,3.541,4.623,3.995,6.988,3.671c1.692-0.233,6.026-1.109,7.03-3.531
					c0.652-1.577,1.883-4.605,3.248-4.529c1.365,0.078,4.123,2.925,6.004,4.375c1.764,1.36,6.725,1.015,7.994,0.736
					c4.198-0.922,4.094-5.963,4.278-9.203c0.104-1.811-0.366-2.993-1.192-3.858l-2.188,1.904L30.379,5.222L30.379,5.222z"/>
				<path id="Fill-103" fill="#D6EEF3" d="M30.379,5.222h29.233l2.189-1.904c-0.65-0.682-1.521-1.167-2.504-1.608
					c-2.396-1.074-6.461-1.848-14.677-0.975C37.532,1.49,32.458,2.87,29.603,4.594L30.379,5.222z"/>
				<path id="Fill-105" fill="#8BD3DF" d="M62.84,5.218c-0.16,3.159-0.517,7.174-4.217,7.988c-1.271,0.279-6.231,0.623-7.996-0.737
					c-1.879-1.449-4.638-4.296-6.002-4.373c-1.365-0.079-2.596,2.95-3.25,4.529c-1.004,2.421-5.336,3.298-7.03,3.53
					c-2.366,0.325-4.792-0.128-6.988-3.67c-0.527-0.85-0.87-1.854-1.053-2.902c-0.228,2.067,0.092,4.376,1.147,6.075
					c2.197,3.541,4.623,3.995,6.988,3.67c1.693-0.232,6.025-1.109,7.029-3.53c0.654-1.578,1.884-4.608,3.25-4.529
					c1.363,0.078,4.123,2.925,6.002,4.373c1.765,1.36,6.726,1.017,7.996,0.737c4.197-0.923,4.093-5.964,4.277-9.203
					C63.04,6.421,62.981,5.777,62.84,5.218"/>
				<path id="Fill-107" fill="#7CBEBE" d="M27.529,12.662c0,0,1.869,3.19,4.882,3.194c1.87,0.001,5.053-1.143,5.749-1.427
					c3.558-1.456,4.491-4.636,4.491-4.636s-0.873,4.175-3.425,5.226c-1.007,0.414-4.754,2.15-7.451,1.668
					C29.214,16.229,27.843,13.525,27.529,12.662"/>
				<path id="Fill-109" fill="#7CBEBE" d="M62.278,8.468c0,0-0.316,3.332-2.798,4.087c-2.272,0.691-5.802,0.393-6.507,0.285
					c-3.6-0.552-5.954-3.409-5.954-3.409s1.413,2.885,5.524,4.196c0.987,0.315,5.539,0.701,7.547-0.284
					C62.184,12.317,62.223,9.376,62.278,8.468"/>
				<path id="Fill-111" fill="#7CBEBE" d="M61.508,13.984c-1.164,1.702-2.795,1.906-4.401,2.153
					c-1.134,0.176-3.291,0.271-5.42-0.395c-0.728-0.229-2.575-1.52-2.917-1.924c-0.342-0.404-2.735-3.166-4.092-2.955
					c-0.808,0.126-1.735,1.035-2.254,1.861c-0.729,1.157-1.662,3.673-2.881,4.574c-1.953,1.443-4.215,1.938-6.273,1.96
					c-2.554,0.026-4.855-2.255-4.855-2.255c0.411,0.84,2.386,3.091,4.65,3.095c3.465,0.006,5.551-0.691,7.302-2.147
					c1.175-0.975,1.849-3.704,2.681-4.798c0.362-0.476,1.135-1.621,1.698-1.704c0.618-0.091,1.851,1.02,2.274,1.515
					c0.56,0.653,1.232,1.637,2.553,2.778c0.417,0.36,2.104,1.252,3.331,1.462c2.431,0.417,5.604-0.155,6.631-0.436
					c1.027-0.28,1.729-1.274,2.21-2.085c0.376-0.632,0.717-1.805,0.778-3.111C62.278,12.551,62.217,12.949,61.508,13.984"/>
				<path id="Fill-113" fill="#8BD3DF" d="M60.971,4.541c-0.073-0.099-0.158-0.194-0.248-0.286l-0.08,0.071
					C60.747,4.392,60.855,4.463,60.971,4.541"/>
				<path id="Fill-115" fill="#8BD3DF" d="M29.246,7.422c0.989-0.566,3.457-1.52,6.128-2.201h-3.228
					c-1.025,0.351-2.002,0.77-2.721,1.264c-1.248,0.859-2.078,2.594-2.078,2.594S28.007,8.131,29.246,7.422"/>
				<path id="Fill-117" fill="#BEE5EC" d="M60.723,4.255c-0.686-0.706-1.771-1.203-2.607-1.461c-0.945-0.293-4.136-0.599-8.49-0.385
					c-4.722,0.232-11.104,1.252-12.414,1.528c-0.867,0.182-3.062,0.601-5.064,1.286h3.227c0.674-0.172,1.36-0.328,2.038-0.454
					c3.373-0.628,9.693-1.445,12.263-1.555c3.004-0.127,5.942-0.12,8.267,0.206c1.426,0.199,1.922,0.405,2.702,0.905L60.723,4.255z"
					/>
				<path id="Fill-119" fill="#575757" d="M26.226,11.137l-1.645,0.331c0,0-0.41,0.111-0.41,0.528v4.036
					c0,0.281,0.41,0.422,0.41,0.422s1.071-0.586,2.869-0.796C26.714,14.041,26.439,13.579,26.226,11.137"/>
				<path id="Fill-121" fill="#CBE4E2" d="M48.111,42.957v39.956c0,0-10.24,10.188-23.506,10.188V32.914L48.111,42.957z"/>
				<path id="Fill-123" fill="#9BBBB9" d="M24.606,32.914l23.506,10.042c0,0-2.261,3.564-3.373,8.112
					C36.469,46.906,27.423,37.271,24.606,32.914"/>
				<path id="Fill-125" fill="#BAD6D5" d="M41.725,54.845l4.732,2.17L35.917,88.873L24.605,81.8v-8.912L41.725,54.845z"/>
				<path id="Fill-127" fill="#DEEEEC" d="M24.606,32.914l23.506,10.042c0,0-2.678,1.977-3.789,6.523
					C35.878,44.323,27.036,35.875,24.606,32.914"/>
				<path id="Fill-129" fill="#9BBBB9" d="M64.979,42.409c0,0,3.232,1.085,10.224-0.463c-3.896,2.122-10.224,2.122-10.224,2.122
					V42.409z"/>
				<path id="Fill-131" fill="#9BBBB9" d="M52.07,54.616l9.825-0.736v1.611l-9.825,0.964V54.616z"/>
				<path id="Fill-133" fill="#CBE4E2" d="M52.07,54.616c0,0,5.772,0.736,9.825-0.736v10.555c0,1.27-1.969,3.186-4.17,3.379
					c-3.12,0.279-5.655-1.107-5.655-3.01V54.616z"/>
				<path id="Fill-135" fill="#7CBEBE" d="M73.727,43.635l2.929-36.499l-5.772-0.463l-2.929,36.499l0,0l0,0l-0.02,0.257l0.012,0.001
					c0.013,1.483,1.155,2.737,2.662,2.858c1.507,0.12,2.836-0.935,3.084-2.398l0.015,0.001L73.727,43.635L73.727,43.635
					L73.727,43.635z"/>
				<path id="Fill-137" fill="#FFFFFF" d="M71.694,7.271l-2.078,25.898l0.01,0.001c0.008,1.045,0.813,1.928,1.875,2.013
					c1.062,0.086,1.998-0.659,2.174-1.689l0.008,0.001L75.76,7.598L71.694,7.271z"/>
				<path id="Fill-139" fill="#8AC5C3" d="M73.868,5.739c-1.665-0.133-2.738,0.156-3.111,0.969c-0.14,0.305-0.158,0.704-0.078,0.97
					c0.201,0.656,1.254,1.319,2.916,1.452c1.666,0.134,2.726-0.312,3.111-0.969c0.15-0.256,0.223-0.634,0.078-0.97
					C76.454,6.426,75.533,5.871,73.868,5.739"/>
				<path id="Fill-141" fill="#934E9D" d="M70.872,17.51l-2.078,25.898l0.01,0.001c0.009,1.045,0.813,1.928,1.875,2.013
					c1.062,0.086,1.998-0.659,2.174-1.688l0.009,0.001l2.103-26.174L70.872,17.51z"/>
				<path id="Fill-143" fill="#B4E0DE" d="M71.999,7.351c0.331,0.269,0.973,0.484,1.728,0.545c0.751,0.061,1.419-0.05,1.791-0.262
					c-0.332-0.269-0.976-0.484-1.728-0.545C73.038,7.029,72.37,7.138,71.999,7.351"/>
				<path id="Fill-145" fill="#A465A8" d="M74.896,17.727c-0.278,0.454-1.39,0.746-2.486,0.655
					c-1.095-0.091-1.757-0.534-1.479-0.987c0.277-0.454,1.391-0.746,2.486-0.655C74.51,16.832,75.174,17.273,74.896,17.727"/>
				<g id="Group-177" transform="translate(67.586207, 9.005714)">
					<path id="Fill-147" fill="#FFFFFF" d="M5.465,3.596C4.498,3.514,3.657,3.261,3.139,2.932L3.073,3.738
						c0.52,0.329,1.36,0.582,2.326,0.663L5.465,3.596z"/>
					<path id="Fill-149" fill="#FFFFFF" d="M5.645,1.413C4.678,1.332,3.836,1.079,3.319,0.75L3.252,1.556
						c0.519,0.329,1.359,0.582,2.326,0.663L5.645,1.413z"/>
					<path id="Fill-151" fill="#FFFFFF" d="M5.286,5.778C4.321,5.697,3.478,5.443,2.959,5.115L2.894,5.921
						C3.412,6.25,4.254,6.503,5.22,6.584L5.286,5.778z"/>
					<path id="Fill-153" fill="#FFFFFF" d="M5.107,7.96C4.14,7.879,3.299,7.625,2.782,7.297L2.714,8.103
						c0.519,0.329,1.36,0.582,2.325,0.663L5.107,7.96z"/>
					<path id="Fill-155" fill="#FFFFFF" d="M4.928,10.142C3.961,10.061,3.12,9.808,2.602,9.479l-0.066,0.806
						c0.52,0.329,1.36,0.582,2.326,0.663L4.928,10.142z"/>
					<path id="Fill-157" fill="#FFFFFF" d="M4.748,12.324c-0.967-0.081-1.809-0.334-2.326-0.663l-0.066,0.806
						c0.52,0.329,1.36,0.582,2.326,0.663L4.748,12.324z"/>
					<path id="Fill-159" fill="#FFFFFF" d="M4.569,14.506c-0.966-0.081-1.808-0.334-2.326-0.663l-0.065,0.806
						c0.519,0.329,1.36,0.582,2.325,0.663L4.569,14.506z"/>
					<path id="Fill-161" fill="#FFFFFF" d="M4.39,16.688c-0.966-0.081-1.808-0.334-2.326-0.663l-0.065,0.806
						c0.519,0.329,1.359,0.582,2.326,0.663L4.39,16.688z"/>
					<path id="Fill-163" fill="#FFFFFF" d="M4.211,18.871c-0.967-0.081-1.809-0.334-2.326-0.663l-0.066,0.806
						c0.52,0.329,1.36,0.582,2.326,0.663L4.211,18.871z"/>
					<path id="Fill-165" fill="#FFFFFF" d="M3.673,25.417c-0.966-0.081-1.808-0.334-2.326-0.663L1.28,25.56
						c0.52,0.329,1.36,0.582,2.326,0.663L3.673,25.417z"/>
					<path id="Fill-167" fill="#FFFFFF" d="M3.493,27.599c-0.966-0.081-1.808-0.334-2.326-0.663l-0.065,0.806
						c0.519,0.329,1.36,0.582,2.326,0.663L3.493,27.599z"/>
					<path id="Fill-169" fill="#FFFFFF" d="M3.314,29.781c-0.966-0.081-1.808-0.334-2.325-0.663l-0.066,0.806
						c0.519,0.329,1.359,0.582,2.326,0.663L3.314,29.781z"/>
					<path id="Fill-171" fill="#FFFFFF" d="M3.135,31.963c-0.967-0.081-1.809-0.334-2.326-0.663l-0.066,0.806
						c0.52,0.329,1.36,0.582,2.326,0.663L3.135,31.963z"/>
					<path id="Fill-173" fill="#FFFFFF" d="M4.032,21.053c-0.967-0.081-1.809-0.334-2.326-0.663l-0.066,0.806
						c0.52,0.329,1.359,0.582,2.326,0.663L4.032,21.053z"/>
					<path id="Fill-175" fill="#FFFFFF" d="M3.852,23.235c-0.966-0.081-1.809-0.334-2.326-0.663l-0.066,0.806
						c0.52,0.329,1.361,0.582,2.326,0.663L3.852,23.235z"/>
				</g>
				<path id="Fill-178" fill="#9FD7D4" d="M76.758,7.191c-0.33-0.764-1.254-1.319-2.916-1.452c-1.666-0.134-2.738,0.156-3.111,0.969
					c-0.141,0.304-0.159,0.704-0.078,0.969c0.201,0.656,1.253,1.319,2.916,1.453c1.665,0.133,2.725-0.312,3.111-0.97
					C76.831,7.906,76.904,7.527,76.758,7.191"/>
				<path id="Fill-180" fill="#B1853F" d="M75.807,7.172c0,0-0.09,1.082-0.146,1.772C73.555,9.59,71.587,8.62,71.587,8.62
					l0.147-1.814L75.807,7.172z"/>
				<path id="Fill-182" fill="#926A2D" d="M71.608,5.43l0.135,1.352c0,0-0.133,0.827,1.922,1c2.051,0.173,2.176-0.678,2.176-0.678
					l0.402-1.251L71.608,5.43z"/>
				<path id="Fill-184" fill="#B1853F" d="M76.264,5.754c-0.047,0.505-1.127,0.825-2.412,0.714
					c-1.284-0.111-2.287-0.611-2.239-1.117c0.048-0.505,1.128-0.825,2.413-0.714C75.31,4.749,76.312,5.248,76.264,5.754"/>
				<path id="Fill-186" fill="#F26E26" d="M80.526,23.341c-2.236-3.698-5.167-4.335-6.242-3.878
					c-1.517,0.646-1.752,3.15-0.589,4.238c0.812,0.759,3.69,3.051,4.714,5.584c1.542-0.064,3.1-0.056,4.623-0.123
					C82.628,27.398,81.803,25.454,80.526,23.341"/>
				<path id="Fill-188" fill="#ECDDC9" d="M80.526,23.341c-2.236-3.698-5.167-4.335-6.242-3.878
					c-1.517,0.646-1.752,3.15-0.589,4.238c0.543,0.508,2.013,1.702,3.231,3.196c1.429-0.426,3.09-1.27,3.953-2.952
					C80.764,23.745,80.649,23.545,80.526,23.341"/>
				<path id="Fill-190" fill="#E0D3C1" d="M74.376,20.075c0,0,1.192-0.404,2.685,0.537c1.508,0.95,2.895,2.636,3.554,3.788
					c-0.238,0.38-0.41,0.57-0.786,0.926c-0.475-0.624-2.44-3.315-3.608-4.085C75.243,20.597,74.819,20.153,74.376,20.075"/>
				<path id="Fill-192" fill="#5D98C5" d="M8.059,38.064L0.104,66.505L35.06,87.093L45.546,54.6L8.059,38.064z"/>
				<path id="Fill-194" fill="#9BB9D9" d="M12.778,44.284l-0.421,1.264l1.106,0.474l0.475-1.211L12.778,44.284z"/>
				<path id="Fill-196" fill="#9BB9D9" d="M8.718,42.282l-0.317,1.211l3.374,1.686l0.317-1.264L8.718,42.282z"/>
				<path id="Fill-198" fill="#9BB9D9" d="M9.245,40.175l-0.369,1.423l7.223,3.476l0.474-1.581L9.245,40.175z"/>
				<path id="Fill-200" fill="#9BB9D9" d="M14.32,50.3c-0.182,0.475-0.66,0.732-1.067,0.575c-0.407-0.157-0.587-0.668-0.404-1.144
					c0.182-0.475,0.66-0.732,1.067-0.575C14.323,49.313,14.502,49.824,14.32,50.3"/>
				<path id="Fill-202" fill="#9BB9D9" d="M28.618,58.124l-0.692-3.654c-0.222,0.144-0.47,0.221-0.72,0.213l0.696,3.681
					C28.121,58.211,28.368,58.127,28.618,58.124"/>
				<path id="Fill-204" fill="#9BB9D9" d="M21.405,57.505c-0.068-0.23-0.084-0.486-0.033-0.746L17.8,57.006
					c0.043,0.239,0.026,0.496-0.051,0.753L21.405,57.505z"/>
				<path id="Fill-206" fill="#9BB9D9" d="M35.644,55.615c-0.203,0.177-0.44,0.289-0.686,0.325l2.136,7.873
					c0.205-0.176,0.44-0.287,0.688-0.323L35.644,55.615z"/>
				<path id="Fill-208" fill="#9BB9D9" d="M14.407,51.022c-0.186,0.195-0.41,0.332-0.649,0.396l1.898,5.06
					c0.179-0.205,0.401-0.352,0.636-0.431L14.407,51.022z"/>
				<path id="Fill-210" fill="#9BB9D9" d="M26.112,53.7l-2.531,2.141c0.171,0.188,0.283,0.432,0.324,0.704l2.565-2.169
					C26.289,54.2,26.166,53.964,26.112,53.7"/>
				<path id="Fill-212" fill="#9BB9D9" d="M12.293,50.138l-4.28,2.277l0.351,0.659l4.114-2.188
					C12.354,50.669,12.289,50.41,12.293,50.138"/>
				<path id="Fill-214" fill="#9BB9D9" d="M33.703,55.111l-4.264,3.362c0.171,0.186,0.284,0.428,0.327,0.693l4.359-3.438
					C33.926,55.577,33.782,55.362,33.703,55.111"/>
				<path id="Fill-216" fill="#9BB9D9" d="M7.66,53.681C7.477,54.155,7,54.413,6.593,54.256c-0.407-0.155-0.587-0.668-0.404-1.143
					c0.182-0.476,0.66-0.733,1.067-0.576C7.662,52.694,7.842,53.205,7.66,53.681"/>
				<path id="Fill-218" fill="#9BB9D9" d="M38.608,65.128c-0.182,0.475-0.66,0.733-1.066,0.576
					c-0.408-0.156-0.588-0.668-0.404-1.143c0.182-0.476,0.66-0.733,1.066-0.576C38.611,64.141,38.792,64.653,38.608,65.128"/>
				<path id="Fill-220" fill="#9BB9D9" d="M35.635,54.831c-0.182,0.475-0.659,0.732-1.066,0.576
					c-0.407-0.157-0.587-0.668-0.404-1.143c0.182-0.476,0.66-0.733,1.067-0.576C35.639,53.845,35.819,54.356,35.635,54.831"/>
				<path id="Fill-222" fill="#9BB9D9" d="M29.192,59.929c-0.182,0.475-0.66,0.732-1.067,0.575
					c-0.407-0.155-0.587-0.668-0.404-1.143c0.182-0.476,0.66-0.733,1.067-0.576C29.194,58.942,29.374,59.453,29.192,59.929"/>
				<path id="Fill-224" fill="#9BB9D9" d="M28.027,53.563c-0.182,0.476-0.66,0.733-1.067,0.576
					c-0.407-0.155-0.587-0.668-0.404-1.143c0.182-0.475,0.66-0.732,1.067-0.576C28.029,52.577,28.209,53.088,28.027,53.563"/>
				<path id="Fill-226" fill="#9BB9D9" d="M23.367,57.25c-0.182,0.476-0.66,0.733-1.067,0.576c-0.407-0.156-0.587-0.668-0.404-1.144
					c0.182-0.475,0.66-0.732,1.067-0.576C23.37,56.265,23.549,56.775,23.367,57.25"/>
				<path id="Fill-228" fill="#9BB9D9" d="M17.232,57.677c-0.182,0.476-0.66,0.733-1.067,0.576
					c-0.407-0.156-0.587-0.668-0.404-1.143c0.182-0.475,0.66-0.733,1.067-0.576C17.234,56.69,17.414,57.202,17.232,57.677"/>
				<path id="Fill-230" fill="#9BB9D9" d="M22.494,78.076l2.109,1.335l0.617-1.423l-2.319-1.546L22.494,78.076z"/>
				<path id="Fill-232" fill="#9BB9D9" d="M19.213,76.268l2.109,1.336l2.425-6.709l-2.319-1.547L19.213,76.268z"/>
				<path id="Fill-234" fill="#9BB9D9" d="M15.839,74.266l2.109,1.336l1.477-4.075l-2.32-1.546L15.839,74.266z"/>
				<path id="Fill-236" fill="#9BB9D9" d="M12.535,72.229l2.109,1.336l0.985-2.6l-2.32-1.546L12.535,72.229z"/>
				<path id="Fill-238" fill="#9BB9D9" d="M9.231,69.981l2.109,1.336l2.109-6.534l-2.319-1.546L9.231,69.981z"/>
				<path id="Fill-240" fill="#9BB9D9" d="M5.857,67.875l2.109,1.335l2.531-8.008l-2.32-1.546L5.857,67.875z"/>
				<path id="Fill-242" fill="#9BB9D9" d="M2.694,65.908l2.109,1.335l1.547-4.778L4.03,60.92L2.694,65.908z"/>
				<path id="Fill-244" fill="#9BB9D9" d="M29.817,80.811c-0.802-0.293-1.424-0.938-1.753-1.816
					c-0.336-0.898-0.326-1.932,0.03-2.905c0.568-1.555,1.883-2.577,3.231-2.661l-0.482,3.881c0,0,1.81,0.006,3.575-0.03
					c-0.039,0.341-0.117,0.687-0.242,1.028C33.45,80.3,31.494,81.422,29.817,80.811 M32.711,72.886
					c-2.064-0.754-4.449,0.57-5.318,2.948c-0.417,1.142-0.427,2.356-0.028,3.423c0.406,1.086,1.186,1.887,2.197,2.256
					c0.439,0.16,0.894,0.226,1.345,0.207c1.666-0.067,3.289-1.285,3.972-3.158C35.747,76.184,34.775,73.638,32.711,72.886"/>
				<path id="Fill-246" fill="#9BB9D9" d="M4.712,56.19l32.527,17.861l0.422-1.054L5.081,55.243L4.712,56.19z"/>
				<path id="Fill-248" fill="#9BB9D9" d="M24.57,60.88l-1.018,3.053l9.574,5.429l1.29-3.054l-6.382-3.664l-0.136-1.496
					l-0.882,1.091L24.57,60.88z"/>
				<path id="Fill-250" fill="#518FB7" d="M16.765,48.431c0,0-3.249,6.154-3.77,11.891c-0.247,2.72-0.471,7.416,0.707,8.947
					c1.178,1.531,4.657,1.403,4.421-2.012c-0.235-3.414-0.335-4.357-0.099-7.771c0.101-1.463,0.965-4.521,1.821-7.182
					c0.309,0.036,0.741,0.217,0.741,0.217s2.056-4.885,3.289-6.654C22.697,45.16,16.765,48.431,16.765,48.431"/>
				<path id="Fill-252" fill="#926A2D" d="M24.606,33.982c0,0,4.764,10.855,17.158,16.133c-0.178,1.138,0.13,1.125-0.28,2.151
					C33.4,48.193,28.316,45.157,24.607,36.77L24.606,33.982L24.606,33.982z"/>
				<path id="Fill-254" fill="#926A2D" d="M64.979,35.231c0,0-4.146,11.193-9.508,15.2c0.115,1.109,0.021,1.389,0.285,2.392
					c3.879-3.116,6.836-6.639,9.223-14.826V35.231z"/>
				<path id="Fill-256" fill="#5E5E5E" d="M57.101,58.022c0,0-0.472-0.066-1.132-0.146l-0.942-6.03c0,0-2.324-0.408-3.106-0.402
					c-0.543,0.003-1.881,0.227-2.521,0.34c-1.483-0.113-4.5-0.337-5.042-0.34c-0.783-0.006-3.107,0.402-3.107,0.402l-0.943,6.03
					c-0.659,0.079-1.131,0.146-1.131,0.146L37.44,69.972c0,0,2.104,1.074,5.158,1.074c1.883,0,4.709-0.764,5.925-1.119v0.045
					c0,0,2.702,1.074,5.157,1.074c3.054,0,5.158-1.074,5.158-1.074L57.101,58.022z"/>
				<path id="Fill-258" fill="#575757" d="M46.471,49.458h-4.442l0.342-3.285c0,0,0.995-0.295,2.284-0.295
					c0.463,0,1.814,0.382,1.814,0.382v3.198H46.471z"/>
				<path id="Fill-260" fill="#62706F" d="M47.311,56.141h-7.48l1.104-7.065c0,0,2.478-0.433,3.313-0.429
					c0.773,0.003,3.062,0.429,3.062,0.429V56.141z"/>
				<path id="Fill-262" fill="#738180" d="M41.581,49.458l-0.953,7.436l1.4-0.332l0.98-7.278
					C43.008,49.284,42.818,49.061,41.581,49.458"/>
				<path id="Fill-264" fill="#62706F" d="M47.874,68.408c0,0-2.884,1.146-5.503,1.146c-3.257,0-5.5-1.146-5.5-1.146l1.853-12.744
					c0,0,3.066-0.43,4.643-0.43c2.002,0,4.508,0.43,4.508,0.43V68.408z"/>
				<path id="Fill-266" fill="#C6E6F9" d="M38.494,68.074c0,0,2.712-0.229,3.619-0.231c1.008-0.003,4.022,0.231,4.022,0.231
					s-1.49,0.723-4.062,0.723C39.799,68.797,38.494,68.074,38.494,68.074"/>
				<path id="Fill-268" fill="#738180" d="M39.378,56.377l-1.586,11.052l2.454-0.408l1.335-10.853
					C41.579,56.169,40.518,56.124,39.378,56.377"/>
				<path id="Fill-270" fill="#575757" d="M50.094,49.458h4.441l-0.342-3.285c0,0-0.995-0.295-2.284-0.295
					c-0.463,0-1.815,0.382-1.815,0.382V49.458L50.094,49.458z"/>
				<path id="Fill-272" fill="#62706F" d="M49.253,56.141h7.48l-1.104-7.065c0,0-2.479-0.433-3.314-0.429
					c-0.773,0.003-3.062,0.429-3.062,0.429V56.141z"/>
				<path id="Fill-274" fill="#738180" d="M50.135,49.447v6.312c0,0,0.832-0.203,1.398-0.203c0-0.58-0.244-6.312-0.244-6.312
					S50.671,49.186,50.135,49.447"/>
				<path id="Fill-276" fill="#3F4040" d="M50.712,54.534h-4.736l0.568,0.617h3.623L50.712,54.534z"/>
				<path id="Fill-278" fill="#575757" d="M50.712,54.534h-4.736l0.189-4.096h4.369L50.712,54.534z"/>
				<path id="Fill-280" fill="#62706F" d="M48.692,68.408c0,0,2.883,1.146,5.502,1.146c3.257,0,5.5-1.146,5.5-1.146L57.84,55.664
					c0,0-3.065-0.43-4.642-0.43c-2.002,0-4.507,0.43-4.507,0.43V68.408z"/>
				<path id="Fill-282" fill="#738180" d="M49.695,56.509v10.699c0,0,1.558-0.343,2.62-0.343c0-0.981-0.46-10.699-0.46-10.699
					S50.699,56.068,49.695,56.509"/>
				<path id="Fill-284" fill="#C6E6F9" d="M50.578,68.074c0,0,2.712-0.229,3.619-0.231c1.008-0.003,4.022,0.231,4.022,0.231
					s-1.49,0.723-4.062,0.723C51.883,68.797,50.578,68.074,50.578,68.074"/>
				<path id="Fill-286" fill="#F26E26" d="M16.006,48.427c0,0-3.249,6.154-3.77,11.891c-0.247,2.72-0.471,7.416,0.707,8.947
					c1.178,1.53,4.657,1.403,4.421-2.012c-0.235-3.414-0.335-4.357-0.099-7.771c0.235-3.414,2.511-9.055,2.982-10.232
					C19.069,48.544,16.006,48.427,16.006,48.427"/>
				<path id="Fill-288" fill="#ECDDC9" d="M12.946,69.265c1.178,1.53,4.657,1.403,4.421-2.012c-0.098-1.422-0.172-2.416-0.208-3.338
					c0,0-2.219,0.391-2.85,0.396c-0.685,0.007-2.265-0.396-2.265-0.396C12.02,66.099,12.207,68.304,12.946,69.265"/>
				<path id="Fill-290" fill="#E0D3C1" d="M15.313,64.209c0,0,0.829,3.593-0.296,5.197c1.195-0.253,1.77-0.815,1.895-1.802
					c0.108-0.851-0.052-2.219-0.295-3.596C16.08,64.097,15.313,64.209,15.313,64.209"/>
				<path id="Fill-292" fill="#CBE4E2" d="M24.606,36.771c0,0-8.247,8.123-9.896,12.008c1.532,0.942,3.77,1.766,5.419,2.825
					c1.178-1.764,3.181-5.297,4.476-6.591L24.606,36.771L24.606,36.771z"/>
				<path id="Fill-294" fill="#B1853F" d="M73.521,9.13c-0.847-0.08-1.396-0.283-1.935-0.51l-0.049,0.614
					c0,0,1.969,0.97,4.074,0.324c0.018-0.2,0.027-0.394,0.046-0.624C75.048,9.122,74.415,9.216,73.521,9.13"/>
			</g>
		</g>
	</g>
</g>
</svg>
